<?xml version="1.0"?>
<svg xmlns="http://www.w3.org/2000/svg" xmlns:xlink="http://www.w3.org/1999/xlink" version="1.1" id="Layer_1" x="0px" y="0px" viewBox="0 0 512 512" style="enable-background:new 0 0 512 512;" xml:space="preserve" width="512px" height="512px" class=""><g><path style="fill:#E74857" d="M201.532,8.17v495.66c0,0,179.745-192.302,179.745-315.916C381.277,88.804,300.643,8.17,201.532,8.17  z" data-original="#FE834D" class="" data-old_color="#FE834D"/><path style="fill:#F6838D" d="M201.532,8.17c-99.111,0-179.745,80.633-179.745,179.744c0,123.614,179.745,315.916,179.745,315.916  s147.064-192.302,147.064-315.916C348.596,88.804,282.623,8.17,201.532,8.17z" data-original="#FEA680" class="" data-old_color="#FEA680"/><path style="fill:#FEA680" d="M201.532,73.532v228.766c63.172,0,114.383-51.211,114.383-114.383S264.704,73.532,201.532,73.532z" data-original="#ABECEC" class="active-path" data-old_color="#ABECEC"/><path style="fill:#FFFFFF;" d="M283.234,187.915c0-63.172-36.58-114.383-81.702-114.383c-63.172,0-114.383,51.211-114.383,114.383  s51.211,114.383,114.383,114.383C246.654,302.298,283.234,251.087,283.234,187.915z" data-original="#FFFFFF" class=""/><path style="fill:#FFE777;" d="M381.277,285.957V503.83c60.165,0,108.936-48.771,108.936-108.936S441.442,285.957,381.277,285.957z" data-original="#FFE777" class=""/><path style="fill:#FFFFFF;" d="M381.277,285.957c42.115,0,76.255,48.771,76.255,108.936S423.391,503.83,381.277,503.83  c-60.165,0-108.936-48.771-108.936-108.936S321.111,285.957,381.277,285.957z" data-original="#FFFFFF" class=""/><polygon style="fill:#FEDC3D;" points="381.277,324.085 402.087,366.251 448.62,373.013 414.948,405.834 422.897,452.179   381.277,430.298 339.656,452.179 347.605,405.834 313.933,373.013 360.467,366.251 " data-original="#FEDC3D"/><path d="M254.861,441.008c-3.521-2.823-8.663-2.257-11.486,1.263c-18.326,22.854-33.784,40.455-41.836,49.418  C170.587,457.157,29.957,294.367,29.957,187.914c0-94.606,76.968-171.573,171.574-171.573s171.574,76.968,171.574,171.573  c0,18.332-4.28,39.607-12.719,63.234c-1.519,4.25,0.696,8.924,4.945,10.443c4.252,1.516,8.925-0.696,10.443-4.946  c9.072-25.396,13.673-48.521,13.673-68.731C389.447,84.298,305.149,0,201.532,0S13.617,84.298,13.617,187.914  c0,52.989,30.743,123.317,91.372,209.031c44.74,63.251,90.121,111.979,90.574,112.464c1.546,1.653,3.706,2.591,5.969,2.591  s4.425-0.938,5.969-2.592c0.209-0.224,21.312-22.859,48.621-56.916C258.946,448.973,258.381,443.831,254.861,441.008z" data-original="#000000" class="" style="fill:#000000"/><circle cx="201.532" cy="187.915" r="8.17" data-original="#000000" class="" style="fill:#000000"/><circle cx="239.66" cy="187.915" r="8.17" data-original="#000000" class="" style="fill:#000000"/><circle cx="163.404" cy="187.915" r="8.17" data-original="#000000" class="" style="fill:#000000"/><path d="M114.82,112.874c-3.612-2.704-8.731-1.97-11.437,1.642c-15.965,21.316-24.404,46.697-24.404,73.399  c0,67.576,54.977,122.553,122.553,122.553s122.553-54.977,122.553-122.553S269.108,65.362,201.532,65.362  c-26.704,0-52.085,8.439-73.399,24.404c-3.611,2.705-4.347,7.826-1.642,11.437c2.705,3.612,7.828,4.347,11.437,1.642  c18.466-13.832,40.46-21.142,63.603-21.142c58.566,0,106.213,47.646,106.213,106.213s-47.646,106.213-106.213,106.213  S95.319,246.481,95.319,187.915c0-23.143,7.311-45.137,21.142-63.603C119.167,120.7,118.432,115.58,114.82,112.874z" data-original="#000000" class="" style="fill:#000000"/><path d="M381.277,277.787c-64.572,0-117.106,52.533-117.106,117.106S316.705,512,381.277,512s117.106-52.533,117.106-117.106  S445.848,277.787,381.277,277.787z M381.277,495.66c-55.563,0-100.766-45.203-100.766-100.766s45.203-100.766,100.766-100.766  s100.766,45.203,100.766,100.766S436.839,495.66,381.277,495.66z" data-original="#000000" class="" style="fill:#000000"/><path d="M456.389,370.488c-0.961-2.958-3.518-5.113-6.596-5.56l-42.281-6.144l-18.908-38.314c-1.377-2.789-4.217-4.555-7.327-4.555  s-5.95,1.766-7.327,4.555l-18.908,38.314l-42.281,6.144c-3.077,0.447-5.635,2.602-6.596,5.56c-0.961,2.958-0.159,6.205,2.066,8.375  l30.596,29.823l-7.222,42.111c-0.526,3.065,0.734,6.164,3.25,7.992c2.516,1.827,5.85,2.069,8.604,0.622l37.819-19.883l37.818,19.883  c1.196,0.629,2.501,0.938,3.801,0.938c1.694,0,3.38-0.526,4.803-1.56c2.516-1.828,3.777-4.926,3.25-7.992l-7.222-42.111  l30.596-29.823C456.549,376.693,457.35,373.445,456.389,370.488z M409.245,399.983c-1.926,1.877-2.804,4.582-2.349,7.232  l5.15,30.027l-26.967-14.178c-1.191-0.625-2.496-0.938-3.802-0.938s-2.611,0.313-3.802,0.938l-26.967,14.178l5.15-30.027  c0.455-2.65-0.424-5.355-2.349-7.232l-21.817-21.267l30.15-4.38c2.661-0.387,4.962-2.058,6.152-4.47l13.481-27.32l13.483,27.32  c1.191,2.411,3.49,4.083,6.152,4.47l30.15,4.38L409.245,399.983z" data-original="#000000" class="" style="fill:#000000"/></g> </svg>
