<svg height="511pt" viewBox="1 -45 511.999 511" width="511pt" xmlns="http://www.w3.org/2000/svg"><path d="m410 210.5c0 65.460938-31.441406 123.558594-80.050781 160.050781-33.410157 25.089844-74.949219 39.949219-119.949219 39.949219s-86.539062-14.859375-119.949219-39.949219c-48.609375-36.492187-80.050781-94.589843-80.050781-160.050781 0-110.460938 89.539062-200 200-200s200 89.539062 200 200zm0 0" fill="#eff3f3"/><path d="m277.269531 138.660156c0 37.152344-30.117187 67.269532-67.269531 67.269532s-67.269531-30.117188-67.269531-67.269532c0-37.148437 30.117187-67.269531 67.269531-67.269531s67.269531 30.121094 67.269531 67.269531zm0 0" fill="#ffddcf"/><path d="m304.015625 229.726562v88.566407c-26.1875 19.667969-58.746094 31.3125-94.015625 31.3125s-67.828125-11.644531-94.015625-31.3125v-88.566407c0-13.144531 10.652344-23.796874 23.796875-23.796874h140.4375c13.144531 0 23.796875 10.652343 23.796875 23.796874zm0 0" fill="#60a4ff"/><path d="m502 292.980469c0 46.429687-37.636719 84.066406-84.066406 84.066406-46.425782 0-84.0625-37.636719-84.0625-84.066406 0-46.425781 37.636718-84.0625 84.0625-84.0625 46.429687 0 84.066406 37.636719 84.066406 84.0625zm0 0" fill="#f6838d"/><path d="m105.984375 229.726562v88.566407c0 3.148437 1.480469 6.109375 3.996094 7.996093 29.023437 21.796876 63.609375 33.316407 100.019531 33.316407s70.996094-11.519531 100.019531-33.316407c2.515625-1.886718 3.996094-4.847656 3.996094-7.996093v-88.566407c0-18.632812-15.160156-33.792968-33.796875-33.792968h-18.402344c15.625-14.148438 25.453125-34.585938 25.453125-57.269532 0-42.609374-34.664062-77.269531-77.269531-77.269531s-77.269531 34.660157-77.269531 77.269531c0 22.683594 9.828125 43.121094 25.453125 57.269532h-18.402344c-18.636719-.003906-33.796875 15.160156-33.796875 33.792968zm46.746094-91.066406c0-31.578125 25.691406-57.269531 57.269531-57.269531s57.269531 25.691406 57.269531 57.269531-25.691406 57.269532-57.269531 57.269532-57.269531-25.691407-57.269531-57.269532zm141.285156 91.066406v83.472657c-24.6875 17.292969-53.625 26.410156-84.015625 26.410156s-59.328125-9.117187-84.015625-26.410156v-83.472657c0-7.605468 6.1875-13.792968 13.796875-13.792968h140.4375c7.605469-.003906 13.796875 6.1875 13.796875 13.792968zm0 0"/><path d="m419.683594 198.929688c-1.910156-34.875-12.492188-68.78125-30.785156-98.464844-2.898438-4.703125-9.054688-6.164063-13.761719-3.269532-4.699219 2.898438-6.164063 9.058594-3.265625 13.761719 16.660156 27.03125 26.25 57.941407 27.878906 89.722657-43.195312 8.496093-75.882812 46.652343-75.882812 92.300781 0 20.386719 6.519531 39.277343 17.582031 54.703125-5.53125 5.300781-11.398438 10.285156-17.503907 14.871094-33.054687 24.824218-72.457031 37.945312-113.945312 37.945312s-80.890625-13.121094-113.945312-37.949219c-48.332032-36.28125-76.054688-91.703125-76.054688-152.050781 0-104.765625 85.234375-190 190-190 36.367188 0 71.707031 10.300781 102.195312 29.792969 4.652344 2.976562 10.835938 1.617187 13.8125-3.039063 2.976563-4.652344 1.613282-10.835937-3.039062-13.8125-33.710938-21.550781-72.777344-32.941406-112.96875-32.941406-115.792969 0-210 94.207031-210 210 0 33.605469 7.703125 65.71875 22.890625 95.441406 14.484375 28.339844 35.632813 53.445313 61.15625 72.605469 36.546875 27.445313 80.101563 41.953125 125.953125 41.953125s89.40625-14.507812 125.953125-41.953125c6.554687-4.917969 12.855469-10.257813 18.8125-15.925781 16.707031 15.171875 38.878906 24.425781 63.167969 24.425781 51.867187 0 94.066406-42.199219 94.066406-94.066406 0-51.28125-41.25-93.113281-92.316406-94.050781zm-1.75 168.117187c-40.839844 0-74.0625-33.226563-74.0625-74.066406 0-40.839844 33.226562-74.0625 74.0625-74.0625 40.839844 0 74.066406 33.222656 74.066406 74.0625 0 40.839843-33.226562 74.066406-74.066406 74.066406zm0 0"/><path d="m439.617188 302.980469h-43.363282c-5.523437 0-10-4.476563-10-10 0-5.523438 4.476563-10 10-10h43.363282c5.523437 0 10 4.476562 10 10 0 5.523437-4.476563 10-10 10zm0 0"/><path d="m353.691406 81.390625c-4.242187 0-8.097656-2.789063-9.460937-6.789063-1.324219-3.882812-.070313-8.347656 3.117187-10.945312 3.28125-2.675781 8.019532-3.007812 11.621094-.761719 3.492188 2.175781 5.34375 6.398438 4.53125 10.445313-.925781 4.613281-5.097656 8.050781-9.808594 8.050781zm0 0"/></svg>
