<?xml version="1.0"?>
<svg xmlns="http://www.w3.org/2000/svg" xmlns:xlink="http://www.w3.org/1999/xlink" version="1.1" id="Capa_1" x="0px" y="0px" viewBox="0 0 512 512" style="enable-background:new 0 0 512 512;" xml:space="preserve" width="512px" height="512px" class=""><g><path style="fill:#F0F0F1;" d="M7.515,53.605v440.861h496.971V53.605H7.515z M111.718,141.777  c-17.708,0-32.063-14.355-32.063-32.063s14.355-32.063,32.063-32.063s32.063,14.355,32.063,32.063S129.426,141.777,111.718,141.777z   M256,141.777c-17.708,0-32.063-14.355-32.063-32.063S238.292,77.652,256,77.652s32.063,14.355,32.063,32.063  S273.708,141.777,256,141.777z M400.282,141.777c-17.708,0-32.063-14.355-32.063-32.063s14.355-32.063,32.063-32.063  s32.063,14.355,32.063,32.063S417.989,141.777,400.282,141.777z" data-original="#F0F0F1" class=""/><rect x="7.515" y="53.605" style="fill:#E1E0E4;" width="32.063" height="440.861" data-original="#E1E0E4"/><path style="fill:#60A4FF" d="M504.485,53.605H7.515V173.84h496.971V53.605z M111.718,141.777  c-17.708,0-32.063-14.355-32.063-32.063s14.355-32.063,32.063-32.063s32.063,14.355,32.063,32.063S129.426,141.777,111.718,141.777z   M256,141.777c-17.708,0-32.063-14.355-32.063-32.063S238.292,77.652,256,77.652s32.063,14.355,32.063,32.063  S273.708,141.777,256,141.777z M400.282,141.777c-17.708,0-32.063-14.355-32.063-32.063s14.355-32.063,32.063-32.063  s32.063,14.355,32.063,32.063S417.989,141.777,400.282,141.777z" data-original="#BA9DD4" class="" data-old_color="#BA9DD4"/><rect x="7.515" y="53.605" style="fill:#408CF2" width="32.564" height="120.235" data-original="#AD7DC9" class="" data-old_color="#AD7DC9"/><g>
	<path style="fill:#5FCE99" d="M111.718,17.534c-6.64,0-12.023,5.384-12.023,12.023v76.149c0,6.64,5.384,12.023,12.023,12.023   s12.023-5.384,12.023-12.023V29.558C123.742,22.918,118.358,17.534,111.718,17.534z" data-original="#38C7C2" class="active-path" data-old_color="#38C7C2"/>
	<path style="fill:#5FCE99" d="M256,17.534c-6.64,0-12.023,5.384-12.023,12.023v76.149c0,6.64,5.384,12.023,12.023,12.023   c6.64,0,12.023-5.384,12.023-12.023V29.558C268.023,22.918,262.64,17.534,256,17.534z" data-original="#38C7C2" class="active-path" data-old_color="#38C7C2"/>
	<path style="fill:#5FCE99" d="M400.282,17.534c-6.64,0-12.023,5.384-12.023,12.023v76.149c0,6.64,5.384,12.023,12.023,12.023   s12.023-5.384,12.023-12.023V29.558C412.305,22.918,406.922,17.534,400.282,17.534z" data-original="#38C7C2" class="active-path" data-old_color="#38C7C2"/>
</g><path d="M504.485,46.09H419.82V29.558c0-10.773-8.765-19.538-19.538-19.538c-10.773,0-19.538,8.765-19.538,19.538V46.09H275.538  V29.558c0-10.773-8.765-19.538-19.538-19.538c-10.773,0-19.538,8.765-19.538,19.538V46.09H131.256V29.558  c0-10.773-8.765-19.538-19.538-19.538S92.18,18.785,92.18,29.558V46.09H7.515C3.365,46.09,0,49.454,0,53.605v440.861  c0,4.151,3.365,7.515,7.515,7.515h496.971c4.15,0,7.515-3.364,7.515-7.515V53.605C512,49.454,508.635,46.09,504.485,46.09z   M496.971,294.575H119.233v-49.096H496.47c0.169,0,0.335-0.014,0.501-0.025V294.575z M119.233,309.605h377.738v49.096H119.233  V309.605z M104.204,358.701H15.029v-49.096h89.174V358.701z M104.204,294.575H15.029v-49.096h89.174V294.575z M15.029,230.45  v-49.096h89.174v49.096H15.029z M15.029,373.73h89.174v49.096H15.029V373.73z M119.233,373.73h377.738v49.096H119.233V373.73z   M400.282,125.245c10.773,0,19.538-8.765,19.538-19.538V94.875c3.191,4.212,5.01,9.412,5.01,14.839  c0,13.536-11.013,24.548-24.548,24.548s-24.548-11.012-24.548-24.548c0-5.432,1.819-10.629,5.01-14.839v10.831  C380.744,116.479,389.509,125.245,400.282,125.245z M395.773,29.558c0-2.486,2.023-4.509,4.509-4.509s4.509,2.023,4.509,4.509  v76.149c0,2.486-2.023,4.509-4.509,4.509s-4.509-2.023-4.509-4.509V29.558z M256,125.245c10.773,0,19.538-8.765,19.538-19.538  V94.839c3.194,4.188,5.01,9.365,5.01,14.875c0,13.536-11.013,24.548-24.548,24.548c-13.535,0-24.548-11.012-24.548-24.548  c0-5.516,1.816-10.693,5.01-14.879v10.871C236.462,116.479,245.227,125.245,256,125.245z M251.491,29.558  c0-2.486,2.023-4.509,4.509-4.509c2.486,0,4.509,2.023,4.509,4.509v76.149c0,2.486-2.023,4.509-4.509,4.509  s-4.509-2.023-4.509-4.509V29.558z M111.718,125.245c10.773,0,19.538-8.765,19.538-19.538V94.874c3.192,4.214,5.01,9.415,5.01,14.84  c0,13.536-11.013,24.548-24.548,24.548S87.17,123.251,87.17,109.714c0-5.46,1.819-10.645,5.01-14.846v10.838  C92.18,116.479,100.945,125.245,111.718,125.245z M107.209,29.558c0-2.486,2.023-4.509,4.509-4.509c2.486,0,4.509,2.023,4.509,4.509  v76.149c0,2.486-2.023,4.509-4.509,4.509c-2.486,0-4.509-2.023-4.509-4.509V29.558z M92.18,61.119V75.31  c-12.372,7.037-20.039,20.146-20.039,34.404c0,21.823,17.755,39.577,39.577,39.577s39.577-17.755,39.577-39.577  c0-14.028-7.536-27.136-19.665-34.21c-0.122-0.071-0.248-0.129-0.374-0.193V61.119h105.205v14.187  c-12.41,7.035-20.039,20.014-20.039,34.408c0,21.823,17.755,39.577,39.577,39.577s39.577-17.755,39.577-39.577  c0-14.381-7.633-27.369-20.039-34.404V61.119h105.206v14.179c-0.046,0.025-0.094,0.045-0.14,0.071  c-12.274,7.046-19.899,20.206-19.899,34.345c0,21.823,17.755,39.577,39.577,39.577s39.577-17.755,39.577-39.577  c0-14.074-7.573-27.204-19.763-34.265c-0.091-0.053-0.185-0.094-0.277-0.142V61.119h77.151v105.205H376.235  c-4.15,0-7.515,3.364-7.515,7.515c0,4.151,3.365,7.515,7.515,7.515h120.736v49.121c-0.166-0.011-0.332-0.025-0.501-0.025H119.233  v-49.096h222.434c4.15,0,7.515-3.364,7.515-7.515c0-4.151-3.365-7.515-7.515-7.515H15.029V61.119H92.18z M15.029,437.855h89.174  v49.096H15.029V437.855z M119.233,486.951v-49.096h377.738v49.096H119.233z" data-original="#000000" class="" style="fill:#000000" data-old_color="#000000"/></g> </svg>
