<?xml version="1.0" encoding="iso-8859-1"?>
<!-- Generator: Adobe Illustrator 21.0.0, SVG Export Plug-In . SVG Version: 6.00 Build 0)  -->
<svg xmlns="http://www.w3.org/2000/svg" xmlns:xlink="http://www.w3.org/1999/xlink" version="1.1" id="Capa_1" x="0px" y="0px" viewBox="0 0 510.602 510.602" style="enable-background:new 0 0 510.602 510.602;" xml:space="preserve" width="512" height="512">
<g>
	<path d="M89.483,237.738c17.078,0,30.972-13.894,30.972-30.972s-13.894-30.972-30.972-30.972   c-17.078,0-30.972,13.894-30.972,30.972S72.405,237.738,89.483,237.738z M89.483,190.794c8.807,0,15.972,7.165,15.972,15.972   s-7.165,15.972-15.972,15.972c-8.807,0-15.972-7.165-15.972-15.972S80.676,190.794,89.483,190.794z"/>
	<path d="M183.372,237.738c17.078,0,30.972-13.894,30.972-30.972s-13.894-30.972-30.972-30.972s-30.972,13.894-30.972,30.972   S166.293,237.738,183.372,237.738z M183.372,190.794c8.807,0,15.972,7.165,15.972,15.972s-7.165,15.972-15.972,15.972   s-15.972-7.165-15.972-15.972S174.564,190.794,183.372,190.794z"/>
	<path d="M277.26,237.738c17.078,0,30.972-13.894,30.972-30.972s-13.894-30.972-30.972-30.972   c-17.078,0-30.972,13.894-30.972,30.972S260.182,237.738,277.26,237.738z M277.26,190.794c8.807,0,15.972,7.165,15.972,15.972   s-7.165,15.972-15.972,15.972c-8.807,0-15.972-7.165-15.972-15.972S268.453,190.794,277.26,190.794z"/>
	<path d="M402.121,206.766c0-17.078-13.894-30.972-30.972-30.972s-30.972,13.894-30.972,30.972s13.894,30.972,30.972,30.972   S402.121,223.844,402.121,206.766z M355.176,206.766c0-8.807,7.165-15.972,15.972-15.972s15.972,7.165,15.972,15.972   s-7.165,15.972-15.972,15.972S355.176,215.573,355.176,206.766z"/>
	<path d="M89.483,324.781c17.078,0,30.972-13.894,30.972-30.972s-13.894-30.972-30.972-30.972   c-17.078,0-30.972,13.894-30.972,30.972S72.405,324.781,89.483,324.781z M89.483,277.837c8.807,0,15.972,7.165,15.972,15.972   s-7.165,15.972-15.972,15.972c-8.807,0-15.972-7.165-15.972-15.972S80.676,277.837,89.483,277.837z"/>
	<path d="M183.372,324.781c17.078,0,30.972-13.894,30.972-30.972s-13.894-30.972-30.972-30.972s-30.972,13.894-30.972,30.972   S166.293,324.781,183.372,324.781z M183.372,277.837c8.807,0,15.972,7.165,15.972,15.972s-7.165,15.972-15.972,15.972   s-15.972-7.165-15.972-15.972S174.564,277.837,183.372,277.837z"/>
	<path d="M89.483,411.823c17.078,0,30.972-13.894,30.972-30.972c0-17.078-13.894-30.972-30.972-30.972   c-17.078,0-30.972,13.894-30.972,30.972C58.511,397.929,72.405,411.823,89.483,411.823z M89.483,364.879   c8.807,0,15.972,7.165,15.972,15.972c0,8.807-7.165,15.972-15.972,15.972c-8.807,0-15.972-7.165-15.972-15.972   C73.511,372.044,80.676,364.879,89.483,364.879z"/>
	<path d="M152.64,411.582c2.889,2.89,7.715,2.891,10.606,0l20.125-20.125l20.125,20.125c6.842,6.842,17.444-3.77,10.606-10.606   l-20.125-20.125l20.125-20.125c6.836-6.835-3.756-17.457-10.606-10.606l-20.125,20.125l-20.125-20.125   c-6.836-6.836-17.457,3.757-10.606,10.606l20.125,20.125l-20.125,20.125C149.711,403.904,149.711,408.653,152.64,411.582z"/>
	<path d="M492.339,337.868c-3.295-9.094-17.398-3.985-14.103,5.109c4.452,12.287,6.731,25.207,6.775,38.401   c0.208,62.029-51.885,114.224-113.87,114.224c-62.606-0.001-113.648-50.818-113.858-113.46   c-0.209-62.206,51.679-114.223,113.875-114.223c35.441,0,68.229,16.063,89.999,44.109c5.931,7.641,17.78-1.556,11.85-9.197   c-5.176-6.668-10.908-12.729-17.097-18.157V79.798c0-17.617-14.333-31.95-31.95-31.95h-45.044V21.521   c0-28.652-44.513-28.737-44.513,0v26.328h-78.917V21.521c0-28.652-44.513-28.737-44.513,0v26.328h-78.916V21.521   c0-28.651-44.513-28.737-44.513,0v26.328H42.539c-17.617,0-31.95,14.333-31.95,31.95v267.631c0,9.673,15,9.673,15,0V152.652   h415.322V273.34c-32.602-21.047-74.181-26.087-110.942-13.73c-10.256,3.447-20.062,8.21-29.12,14.128   c-5.796-6.848-14.31-10.902-23.589-10.902c-17.078,0-30.972,13.894-30.972,30.972c0,9.843,4.748,19.035,12.464,24.816   c-19.98,35.428-21.786,79.53-4.884,116.514H42.539c-9.346,0-16.95-7.604-16.95-16.95v-33.759c0-9.673-15-9.673-15,0v33.759   c0,17.617,14.333,31.95,31.95,31.95h219.437c22.826,36.304,63.241,60.467,109.166,60.463c70.406,0,129.106-58.859,128.871-129.274   C499.962,366.403,497.38,351.781,492.339,337.868z M349.403,21.521c0-9.315,14.513-9.329,14.513,0v65.038   c0,9.315-14.513,9.329-14.513,0V21.521z M225.973,21.521c0-9.314,14.513-9.329,14.513,0v65.038c0,9.38-14.513,9.38-14.513,0V21.521   z M102.544,21.521c0-9.315,14.513-9.328,14.513,0v65.038c0,9.315-14.513,9.329-14.513,0V21.521z M25.589,137.652V79.798   c0-9.346,7.604-16.95,16.95-16.95h45.005v23.71c0,28.652,44.513,28.737,44.513,0v-23.71h78.916v23.71   c0,28.702,44.513,28.702,44.513,0v-23.71h78.917v23.71c0,28.651,44.513,28.737,44.513,0v-23.71h45.044   c9.346,0,16.95,7.604,16.95,16.95v57.854H25.589z M261.288,293.809c0-8.807,7.165-15.972,15.972-15.972   c4.43,0,8.523,1.793,11.479,4.862c-8.186,6.832-15.534,14.655-21.825,23.265C263.412,302.967,261.288,298.534,261.288,293.809z"/>
	<path d="M371.069,434.965c-6.373,0.021-12.356,2.522-16.848,7.043c-4.492,4.521-6.955,10.521-6.934,16.894   s2.523,12.356,7.046,16.847c4.502,4.471,10.469,6.93,16.811,6.929c0.027,0,0.056,0,0.083,0c6.373-0.021,12.355-2.522,16.847-7.042   c4.493-4.521,6.955-10.521,6.933-16.894s-2.523-12.355-7.046-16.847C383.441,437.404,377.419,434.985,371.069,434.965z    M380.009,458.792c0.008,2.365-0.906,4.592-2.573,6.27c-1.668,1.679-3.89,2.607-6.257,2.615c-0.011,0-0.021,0-0.031,0   c-2.355,0-4.572-0.913-6.244-2.573c-1.679-1.667-2.607-3.888-2.615-6.253c-0.008-2.366,0.906-4.593,2.574-6.271   s3.89-2.607,6.257-2.615c0.01,0,0.021,0,0.031,0c2.355,0,4.571,0.913,6.244,2.574C379.072,454.205,380.001,456.426,380.009,458.792   L380.009,458.792z"/>
	<path d="M395.401,305.096c0-13.374-10.88-24.254-24.253-24.254c-13.374,0-24.254,10.88-24.254,24.254v100.099   c0,13.374,10.88,24.254,24.254,24.254c13.373,0,24.253-10.88,24.253-24.254V305.096z M380.401,405.195   c0,5.103-4.151,9.254-9.253,9.254c-5.103,0-9.254-4.151-9.254-9.254V305.096c0-5.103,4.151-9.254,9.254-9.254   c5.102,0,9.253,4.151,9.253,9.254V405.195z"/>
</g>















</svg>
