<?xml version="1.0"?>
<svg xmlns="http://www.w3.org/2000/svg" height="512px" viewBox="0 -24 512.00101 512" width="512px" class=""><g><path d="m345.589844 410.914062h-335.460938v-376.277343h449.167969v264.734375" fill="#fdfdfd" data-original="#FDFDFD" class=""/><path d="m61.535156 118.40625h-51.40625v-83.769531h449.167969v83.769531h-316.046875" fill="#ff6977" data-original="#FF6977" class="active-path" style="fill:#F24A5A" data-old_color="#ff6977"/><g fill="#d7d6d8"><path d="m78.496094 184.871094h76.117187v60.769531h-76.117187zm0 0" data-original="#D7D6D8" class=""/><path d="m195.730469 184.871094h76.121093v60.769531h-76.121093zm0 0" data-original="#D7D6D8" class=""/><path d="m312.964844 184.871094h76.121094v60.769531h-76.121094zm0 0" data-original="#D7D6D8" class=""/><path d="m78.496094 284.566406h76.117187v60.773438h-76.117187zm0 0" data-original="#D7D6D8" class=""/></g><path d="m195.730469 284.566406h76.121093v60.773438h-76.121093zm0 0" fill="#ffb48e" data-original="#FFB48E" class=""/><path d="m341.539062 345.339844h-28.574218v-60.773438h76.121094v11.257813" fill="#d7d6d8" data-original="#D7D6D8" class=""/><path d="m501.871094 373.046875c0 45.113281-36.570313 81.683594-81.6875 81.683594-45.113282 0-81.683594-36.570313-81.683594-81.683594s36.570312-81.6875 81.683594-81.6875c45.117187 0 81.6875 36.574219 81.6875 81.6875zm0 0" fill="#ff6977" data-original="#FF6977" class="active-path" style="fill:#F24A5A" data-old_color="#ff6977"/><path d="m154.613281 174.738281h-76.121093c-5.59375 0-10.128907 4.535157-10.128907 10.132813v60.769531c0 5.59375 4.535157 10.128906 10.128907 10.128906h76.121093c5.59375 0 10.128907-4.535156 10.128907-10.128906v-60.769531c.003906-5.597656-4.535157-10.132813-10.128907-10.132813zm-10.128906 60.769531h-55.863281v-40.511718h55.863281zm0 0" data-original="#000000" class=""/><path d="m271.851562 174.738281h-76.121093c-5.59375 0-10.128907 4.535157-10.128907 10.132813v60.769531c0 5.59375 4.535157 10.128906 10.128907 10.128906h76.121093c5.59375 0 10.128907-4.535156 10.128907-10.128906v-60.769531c0-5.597656-4.535157-10.132813-10.128907-10.132813zm-10.128906 60.769531h-55.863281v-40.511718h55.863281zm0 0" data-original="#000000" class=""/><path d="m312.964844 255.769531h76.121094c5.59375 0 10.128906-4.539062 10.128906-10.132812v-60.769531c0-5.59375-4.535156-10.128907-10.128906-10.128907h-76.121094c-5.59375 0-10.128906 4.535157-10.128906 10.128907v60.769531c0 5.597656 4.535156 10.132812 10.128906 10.132812zm10.128906-60.769531h55.863281v40.507812h-55.863281zm0 0" data-original="#000000" class=""/><path d="m154.613281 274.4375h-76.121093c-5.59375 0-10.128907 4.535156-10.128907 10.128906v60.773438c0 5.59375 4.535157 10.128906 10.128907 10.128906h76.121093c5.59375 0 10.128907-4.535156 10.128907-10.128906v-60.773438c.003906-5.59375-4.535157-10.128906-10.128907-10.128906zm-10.128906 60.769531h-55.863281v-40.507812h55.863281zm0 0" data-original="#000000" class=""/><path d="m271.851562 274.4375h-76.121093c-5.59375 0-10.128907 4.535156-10.128907 10.128906v60.773438c0 5.59375 4.535157 10.128906 10.128907 10.128906h76.121093c5.59375 0 10.128907-4.535156 10.128907-10.128906v-60.773438c0-5.59375-4.535157-10.128906-10.128907-10.128906zm-10.128906 60.769531h-55.863281v-40.507812h55.863281zm0 0" data-original="#000000" class=""/><path d="m469.425781 34.636719c0-5.59375-4.535156-10.128907-10.128906-10.128907h-85.90625v-14.746093c0-13.003907-20.261719-13.023438-20.261719 0v14.746093h-66.054687v-14.746093c0-13.003907-20.257813-13.023438-20.257813 0v14.746093h-66.054687v-14.746093c0-13.003907-20.257813-13.023438-20.257813 0v14.746093h-66.054687v-14.746093c0-13.003907-20.257813-13.023438-20.257813 0v14.746093h-84.0625c-5.59375 0-10.128906 4.535157-10.128906 10.128907v376.277343c0 5.59375 4.535156 10.128907 10.128906 10.128907h331.816406c16.175782 26.269531 45.195313 43.820312 78.238282 43.820312 50.628906 0 91.816406-41.191406 91.816406-91.816406 0-32.523437-16.996094-61.148437-42.574219-77.460937zm-449.167969 366.148437v-272.25h41.277344c13.007813 0 13.027344-20.261718 0-20.261718h-41.277344v-63.507813h73.933594v23.125c0 13.007813 20.257813 13.027344 20.257813 0v-23.125h66.054687v23.125c0 13.007813 20.257813 13.027344 20.257813 0v-23.125h66.054687v23.125c0 13.007813 20.257813 13.027344 20.257813 0v-23.125h66.054687v23.125c0 13.007813 20.261719 13.027344 20.261719 0v-23.125h75.777344v63.507813h-305.917969c-13.007812 0-13.027344 20.261718 0 20.261718h305.917969v157.386719c-9.117188-3.039063-18.859375-4.691406-28.984375-4.691406-7.226563 0-14.261719.84375-21.011719 2.429687-.460937-5.167968-4.796875-9.222656-10.085937-9.222656h-76.121094c-5.59375 0-10.128906 4.535156-10.128906 10.128906v60.773438c0 5.59375 4.535156 10.128906 10.128906 10.128906h17.101562c-1.109375 5.691406-1.695312 11.566406-1.695312 17.578125 0 9.664063 1.503906 18.980469 4.285156 27.738281zm316.273438-65.578125h-13.4375v-40.507812h49.269531c-15.632812 9.574219-28.195312 23.695312-35.832031 40.507812zm83.652344 109.394531c-39.453125 0-71.554688-32.097656-71.554688-71.554687 0-39.460937 32.097656-71.558594 71.554688-71.558594 39.457031 0 71.558594 32.097657 71.558594 71.558594 0 39.457031-32.101563 71.554687-71.558594 71.554687zm0 0" data-original="#000000" class=""/><path d="m420.183594 324.398438c-5.59375 0-10.128906 4.535156-10.128906 10.128906v45.363281c0 13.007813 20.261718 13.027344 20.261718 0v-45.363281c0-5.59375-4.539062-10.128906-10.132812-10.128906zm0 0" data-original="#000000" class=""/><path d="m420.183594 403.820312c-5.414063 0-10.039063 4.539063-10.109375 9.957032-.074219 5.621094 4.53125 10.261718 10.136719 10.269531 5.585937.003906 10.214843-4.746094 10.097656-10.335937-.113282-5.375-4.75-9.890626-10.125-9.890626zm0 0" data-original="#000000" class=""/><path d="m102.394531 128.535156c5.417969 0 10.042969-4.539062 10.113281-9.957031.074219-5.621094-4.53125-10.261719-10.136718-10.269531-5.589844-.007813-10.210938 4.746094-10.097656 10.335937.109374 5.378907 4.746093 9.890625 10.121093 9.890625zm0 0" data-original="#000000" class=""/></g> </svg>
